<svg xmlns="http://www.w3.org/2000/svg" width="96" height="96" viewBox="0 0 96 96" role="img" aria-label="SUN">
  <circle cx="48" cy="48" r="48" fill="#ffb020"/>
  <circle cx="48" cy="48" r="20" fill="#fff7d6"/>
  <g fill="#fff7d6">
    <path d="M48 8l6 16H42l6-16zM48 88l-6-16h12l-6 16zM8 48l16-6v12L8 48zM88 48l-16 6V42l16 6z"/>
    <path d="M20 20l15 7-8 8-7-15zM76 76l-15-7 8-8 7 15zM76 20l-7 15-8-8 15-7zM20 76l7-15 8 8-15 7z"/>
  </g>
  <path d="M39 50c2 4 5 6 9 6s7-2 9-6" fill="none" stroke="#d07a00" stroke-width="5" stroke-linecap="round"/>
</svg>
